<?xml version="1.0" encoding="utf-8"?>
<!-- Svg Vector Icons : http://www.onlinewebfonts.com/icon -->
<!DOCTYPE svg PUBLIC "-//W3C//DTD SVG 1.1//EN" "http://www.w3.org/Graphics/SVG/1.1/DTD/svg11.dtd">
<svg version="1.1" xmlns="http://www.w3.org/2000/svg" xmlns:xlink="http://www.w3.org/1999/xlink" x="0px" y="0px" viewBox="0 0 1000 1000" enable-background="new 0 0 1000 1000" xml:space="preserve">
<metadata> Svg Vector Icons : http://www.onlinewebfonts.com/icon </metadata>
<g><g transform="translate(0.000000,233.000000) scale(0.100000,-0.100000)"><path d="M8439.6-454.2c-24.9-11.5-57.6-49.9-72.9-86.3c-25-63.3-25-74.8,9.6-149.7c21.1-44.1,264.8-464.4,543.1-934.6l506.6-854l-4611.4-9.6l-4611.4-9.6l-51.8-51.8c-65.2-65.2-69.1-172.7-7.7-234.1l42.2-40.3l4622.9-9.6l4622.9-9.6l-520.1-882.7c-285.9-485.5-531.6-911.5-546.9-946.1c-61.4-147.8,113.2-295.5,239.9-201.5c74.8,55.6,1293.4,2126.3,1295.3,2204.9c1.9,44.1-147.8,310.9-608.3,1093.8c-335.8,568-635.2,1057.4-665.9,1088.1C8568.2-433.1,8516.4-423.5,8439.6-454.2z"/></g></g>
</svg>