<?xml version="1.0" encoding="iso-8859-1"?>
<!-- Generator: Adobe Illustrator 21.0.0, SVG Export Plug-In . SVG Version: 6.00 Build 0)  -->
<svg version="1.1" xmlns="http://www.w3.org/2000/svg" xmlns:xlink="http://www.w3.org/1999/xlink" x="0px" y="0px" width="1400px"
	 height="1400px" viewBox="0 0 1400 1400" enable-background="new 0 0 1400 1400" xml:space="preserve">
<g id="Background">
	<radialGradient id="gradient_fill_1_" cx="-5.2651" cy="-7.5151" r="2007.8357" gradientUnits="userSpaceOnUse">
		<stop  offset="0" style="stop-color:#17548C"/>
		<stop  offset="0.9892" style="stop-color:#001135"/>
	</radialGradient>
	<rect id="gradient_fill" fill="url(#gradient_fill_1_)" width="1400" height="1400"/>
</g>
<g id="Objects">
	<g id="stars">
		<g>
			<radialGradient id="SVGID_1_" cx="767.0458" cy="168.4232" r="20.0625" gradientUnits="userSpaceOnUse">
				<stop  offset="0" style="stop-color:#FFFFFF"/>
				<stop  offset="0.1375" style="stop-color:#FFFFFF;stop-opacity:0.8625"/>
				<stop  offset="1" style="stop-color:#FFFFFF;stop-opacity:0"/>
			</radialGradient>
			<circle opacity="0.5" fill="url(#SVGID_1_)" cx="767" cy="168.4" r="20.1"/>
			<circle fill="#FFFFFF" cx="767" cy="168.4" r="3.6"/>
		</g>
		<g>
			<radialGradient id="SVGID_2_" cx="50" cy="358.3669" r="20.0625" gradientUnits="userSpaceOnUse">
				<stop  offset="0" style="stop-color:#FFFFFF"/>
				<stop  offset="0.1375" style="stop-color:#FFFFFF;stop-opacity:0.8625"/>
				<stop  offset="1" style="stop-color:#FFFFFF;stop-opacity:0"/>
			</radialGradient>
			<circle opacity="0.5" fill="url(#SVGID_2_)" cx="50" cy="358.4" r="20.1"/>
			<circle fill="#FFFFFF" cx="50" cy="358.4" r="3.6"/>
		</g>
		<g>
			<radialGradient id="SVGID_3_" cx="471.7339" cy="520.3564" r="10.0266" gradientUnits="userSpaceOnUse">
				<stop  offset="0" style="stop-color:#FFFFFF"/>
				<stop  offset="0.1375" style="stop-color:#FFFFFF;stop-opacity:0.8625"/>
				<stop  offset="1" style="stop-color:#FFFFFF;stop-opacity:0"/>
			</radialGradient>
			<circle opacity="0.5" fill="url(#SVGID_3_)" cx="471.7" cy="520.4" r="10"/>
			<circle fill="#FFFFFF" cx="471.7" cy="520.4" r="1.8"/>
		</g>
		<g>
			<radialGradient id="SVGID_4_" cx="70.0625" cy="1110.5078" r="10.0266" gradientUnits="userSpaceOnUse">
				<stop  offset="0" style="stop-color:#FFFFFF"/>
				<stop  offset="0.1375" style="stop-color:#FFFFFF;stop-opacity:0.8625"/>
				<stop  offset="1" style="stop-color:#FFFFFF;stop-opacity:0"/>
			</radialGradient>
			<circle opacity="0.5" fill="url(#SVGID_4_)" cx="70.1" cy="1110.5" r="10"/>
			<circle fill="#FFFFFF" cx="70.1" cy="1110.5" r="1.8"/>
		</g>
		<g>
			<radialGradient id="SVGID_5_" cx="767.6034" cy="882.7897" r="10.0266" gradientUnits="userSpaceOnUse">
				<stop  offset="0" style="stop-color:#FFFFFF"/>
				<stop  offset="0.1375" style="stop-color:#FFFFFF;stop-opacity:0.8625"/>
				<stop  offset="1" style="stop-color:#FFFFFF;stop-opacity:0"/>
			</radialGradient>
			<circle opacity="0.5" fill="url(#SVGID_5_)" cx="767.6" cy="882.8" r="10"/>
			<circle fill="#FFFFFF" cx="767.6" cy="882.8" r="1.8"/>
		</g>
		<g>
			<radialGradient id="SVGID_6_" cx="1130.9827" cy="710.0266" r="10.0266" gradientUnits="userSpaceOnUse">
				<stop  offset="0" style="stop-color:#FFFFFF"/>
				<stop  offset="0.1375" style="stop-color:#FFFFFF;stop-opacity:0.8625"/>
				<stop  offset="1" style="stop-color:#FFFFFF;stop-opacity:0"/>
			</radialGradient>
			<circle opacity="0.5" fill="url(#SVGID_6_)" cx="1131" cy="710" r="10"/>
			<circle fill="#FFFFFF" cx="1131" cy="710" r="1.8"/>
		</g>
		<g>
			<radialGradient id="SVGID_7_" cx="1325.7057" cy="1284.8119" r="10.0266" gradientUnits="userSpaceOnUse">
				<stop  offset="0" style="stop-color:#FFFFFF"/>
				<stop  offset="0.1375" style="stop-color:#FFFFFF;stop-opacity:0.8625"/>
				<stop  offset="1" style="stop-color:#FFFFFF;stop-opacity:0"/>
			</radialGradient>
			<circle opacity="0.5" fill="url(#SVGID_7_)" cx="1325.7" cy="1284.8" r="10"/>
			<circle fill="#FFFFFF" cx="1325.7" cy="1284.8" r="1.8"/>
		</g>
		<g>
			<radialGradient id="SVGID_8_" cx="1325.7057" cy="117.6129" r="10.0266" gradientUnits="userSpaceOnUse">
				<stop  offset="0" style="stop-color:#FFFFFF"/>
				<stop  offset="0.1375" style="stop-color:#FFFFFF;stop-opacity:0.8625"/>
				<stop  offset="1" style="stop-color:#FFFFFF;stop-opacity:0"/>
			</radialGradient>
			<circle opacity="0.5" fill="url(#SVGID_8_)" cx="1325.7" cy="117.6" r="10"/>
			<circle fill="#FFFFFF" cx="1325.7" cy="117.6" r="1.8"/>
		</g>
		<g>
			<radialGradient id="SVGID_9_" cx="117.3292" cy="117.6129" r="10.0266" gradientUnits="userSpaceOnUse">
				<stop  offset="0" style="stop-color:#FFFFFF"/>
				<stop  offset="0.1375" style="stop-color:#FFFFFF;stop-opacity:0.8625"/>
				<stop  offset="1" style="stop-color:#FFFFFF;stop-opacity:0"/>
			</radialGradient>
			<circle opacity="0.5" fill="url(#SVGID_9_)" cx="117.3" cy="117.6" r="10"/>
			<circle fill="#FFFFFF" cx="117.3" cy="117.6" r="1.8"/>
		</g>
		<g>
			<radialGradient id="SVGID_10_" cx="608.9837" cy="796.2029" r="10.0266" gradientUnits="userSpaceOnUse">
				<stop  offset="0" style="stop-color:#FFFFFF"/>
				<stop  offset="0.1375" style="stop-color:#FFFFFF;stop-opacity:0.8625"/>
				<stop  offset="1" style="stop-color:#FFFFFF;stop-opacity:0"/>
			</radialGradient>
			<circle opacity="0.5" fill="url(#SVGID_10_)" cx="609" cy="796.2" r="10"/>
			<circle fill="#FFFFFF" cx="609" cy="796.2" r="1.8"/>
		</g>
		<g>
			<radialGradient id="SVGID_11_" cx="381.8639" cy="75.6876" r="10.0266" gradientUnits="userSpaceOnUse">
				<stop  offset="0" style="stop-color:#FFFFFF"/>
				<stop  offset="0.1375" style="stop-color:#FFFFFF;stop-opacity:0.8625"/>
				<stop  offset="1" style="stop-color:#FFFFFF;stop-opacity:0"/>
			</radialGradient>
			<circle opacity="0.5" fill="url(#SVGID_11_)" cx="381.9" cy="75.7" r="10"/>
			<circle fill="#FFFFFF" cx="381.9" cy="75.7" r="1.8"/>
		</g>
		<g>
			<radialGradient id="SVGID_12_" cx="980.2329" cy="988.6794" r="20.0625" gradientUnits="userSpaceOnUse">
				<stop  offset="0" style="stop-color:#FFFFFF"/>
				<stop  offset="0.1375" style="stop-color:#FFFFFF;stop-opacity:0.8625"/>
				<stop  offset="1" style="stop-color:#FFFFFF;stop-opacity:0"/>
			</radialGradient>
			<circle opacity="0.5" fill="url(#SVGID_12_)" cx="980.2" cy="988.7" r="20.1"/>
			<circle fill="#FFFFFF" cx="980.2" cy="988.7" r="3.6"/>
		</g>
		<g>
			<radialGradient id="SVGID_13_" cx="1184.6075" cy="1189.1686" r="20.0625" gradientUnits="userSpaceOnUse">
				<stop  offset="0" style="stop-color:#FFFFFF"/>
				<stop  offset="0.1375" style="stop-color:#FFFFFF;stop-opacity:0.8625"/>
				<stop  offset="1" style="stop-color:#FFFFFF;stop-opacity:0"/>
			</radialGradient>
			<circle opacity="0.5" fill="url(#SVGID_13_)" cx="1184.6" cy="1189.2" r="20.1"/>
			<circle fill="#FFFFFF" cx="1184.6" cy="1189.2" r="3.6"/>
		</g>
		<g>
			<radialGradient id="SVGID_14_" cx="512.0464" cy="287.2081" r="20.0625" gradientUnits="userSpaceOnUse">
				<stop  offset="0" style="stop-color:#FFFFFF"/>
				<stop  offset="0.1375" style="stop-color:#FFFFFF;stop-opacity:0.8625"/>
				<stop  offset="1" style="stop-color:#FFFFFF;stop-opacity:0"/>
			</radialGradient>
			<circle opacity="0.5" fill="url(#SVGID_14_)" cx="512" cy="287.2" r="20.1"/>
			<circle fill="#FFFFFF" cx="512" cy="287.2" r="3.6"/>
		</g>
		<g>
			
				<radialGradient id="SVGID_15_" cx="3404.176" cy="520.3564" r="34.3124" gradientTransform="matrix(0.2895 0 0 1 -262.0612 0)" gradientUnits="userSpaceOnUse">
				<stop  offset="0" style="stop-color:#FFFFFF"/>
				<stop  offset="0.1375" style="stop-color:#FFFFFF;stop-opacity:0.8625"/>
				<stop  offset="1" style="stop-color:#FFFFFF;stop-opacity:0"/>
			</radialGradient>
			<ellipse fill="url(#SVGID_15_)" cx="723.4" cy="520.4" rx="9.9" ry="34.3"/>
			
				<radialGradient id="SVGID_16_" cx="-1786.4215" cy="1202.1853" r="34.3124" gradientTransform="matrix(0 -0.2895 1 0 -478.8268 3.2343)" gradientUnits="userSpaceOnUse">
				<stop  offset="0" style="stop-color:#FFFFFF"/>
				<stop  offset="0.1375" style="stop-color:#FFFFFF;stop-opacity:0.8625"/>
				<stop  offset="1" style="stop-color:#FFFFFF;stop-opacity:0"/>
			</radialGradient>
			<ellipse fill="url(#SVGID_16_)" cx="723.4" cy="520.4" rx="34.3" ry="9.9"/>
			<circle fill="#FFFFFF" cx="723.4" cy="520.4" r="3.9"/>
		</g>
		<g>
			
				<radialGradient id="SVGID_17_" cx="3522.71" cy="1134.7936" r="34.3124" gradientTransform="matrix(0.2895 0 0 1 -262.0612 0)" gradientUnits="userSpaceOnUse">
				<stop  offset="0" style="stop-color:#FFFFFF"/>
				<stop  offset="0.1375" style="stop-color:#FFFFFF;stop-opacity:0.8625"/>
				<stop  offset="1" style="stop-color:#FFFFFF;stop-opacity:0"/>
			</radialGradient>
			<ellipse fill="url(#SVGID_17_)" cx="757.7" cy="1134.8" rx="9.9" ry="34.3"/>
			
				<radialGradient id="SVGID_18_" cx="-3909.0222" cy="1236.4977" r="34.3124" gradientTransform="matrix(0 -0.2895 1 0 -478.8268 3.2343)" gradientUnits="userSpaceOnUse">
				<stop  offset="0" style="stop-color:#FFFFFF"/>
				<stop  offset="0.1375" style="stop-color:#FFFFFF;stop-opacity:0.8625"/>
				<stop  offset="1" style="stop-color:#FFFFFF;stop-opacity:0"/>
			</radialGradient>
			<ellipse fill="url(#SVGID_18_)" cx="757.7" cy="1134.8" rx="34.3" ry="9.9"/>
			<circle fill="#FFFFFF" cx="757.7" cy="1134.8" r="3.9"/>
		</g>
		<g>
			
				<radialGradient id="SVGID_19_" cx="1429.155" cy="1286.5923" r="34.3124" gradientTransform="matrix(0.2895 0 0 1 -262.0612 0)" gradientUnits="userSpaceOnUse">
				<stop  offset="0" style="stop-color:#FFFFFF"/>
				<stop  offset="0.1375" style="stop-color:#FFFFFF;stop-opacity:0.8625"/>
				<stop  offset="1" style="stop-color:#FFFFFF;stop-opacity:0"/>
			</radialGradient>
			<ellipse fill="url(#SVGID_19_)" cx="151.6" cy="1286.6" rx="9.9" ry="34.3"/>
			
				<radialGradient id="SVGID_20_" cx="-4433.418" cy="630.4685" r="34.3124" gradientTransform="matrix(0 -0.2895 1 0 -478.8268 3.2343)" gradientUnits="userSpaceOnUse">
				<stop  offset="0" style="stop-color:#FFFFFF"/>
				<stop  offset="0.1375" style="stop-color:#FFFFFF;stop-opacity:0.8625"/>
				<stop  offset="1" style="stop-color:#FFFFFF;stop-opacity:0"/>
			</radialGradient>
			<ellipse fill="url(#SVGID_20_)" cx="151.6" cy="1286.6" rx="34.3" ry="9.9"/>
			<circle fill="#FFFFFF" cx="151.6" cy="1286.6" r="3.9"/>
		</g>
		<g>
			
				<radialGradient id="SVGID_21_" cx="5243.0391" cy="882.7897" r="34.3124" gradientTransform="matrix(0.2895 0 0 1 -262.0612 0)" gradientUnits="userSpaceOnUse">
				<stop  offset="0" style="stop-color:#FFFFFF"/>
				<stop  offset="0.1375" style="stop-color:#FFFFFF;stop-opacity:0.8625"/>
				<stop  offset="1" style="stop-color:#FFFFFF;stop-opacity:0"/>
			</radialGradient>
			<ellipse fill="url(#SVGID_21_)" cx="1255.7" cy="882.8" rx="9.9" ry="34.3"/>
			
				<radialGradient id="SVGID_22_" cx="-3038.4634" cy="1734.4878" r="34.3124" gradientTransform="matrix(0 -0.2895 1 0 -478.8268 3.2343)" gradientUnits="userSpaceOnUse">
				<stop  offset="0" style="stop-color:#FFFFFF"/>
				<stop  offset="0.1375" style="stop-color:#FFFFFF;stop-opacity:0.8625"/>
				<stop  offset="1" style="stop-color:#FFFFFF;stop-opacity:0"/>
			</radialGradient>
			<ellipse fill="url(#SVGID_22_)" cx="1255.7" cy="882.8" rx="34.3" ry="9.9"/>
			<circle fill="#FFFFFF" cx="1255.7" cy="882.8" r="3.9"/>
		</g>
		<g>
			
				<radialGradient id="SVGID_23_" cx="1845.9955" cy="582.3538" r="34.3124" gradientTransform="matrix(0.2895 0 0 1 -262.0612 0)" gradientUnits="userSpaceOnUse">
				<stop  offset="0" style="stop-color:#FFFFFF"/>
				<stop  offset="0.1375" style="stop-color:#FFFFFF;stop-opacity:0.8625"/>
				<stop  offset="1" style="stop-color:#FFFFFF;stop-opacity:0"/>
			</radialGradient>
			<ellipse fill="url(#SVGID_23_)" cx="272.3" cy="582.4" rx="9.9" ry="34.3"/>
			
				<radialGradient id="SVGID_24_" cx="-2000.5942" cy="751.1329" r="34.3124" gradientTransform="matrix(0 -0.2895 1 0 -478.8268 3.2343)" gradientUnits="userSpaceOnUse">
				<stop  offset="0" style="stop-color:#FFFFFF"/>
				<stop  offset="0.1375" style="stop-color:#FFFFFF;stop-opacity:0.8625"/>
				<stop  offset="1" style="stop-color:#FFFFFF;stop-opacity:0"/>
			</radialGradient>
			<ellipse fill="url(#SVGID_24_)" cx="272.3" cy="582.4" rx="34.3" ry="9.9"/>
			<circle fill="#FFFFFF" cx="272.3" cy="582.4" r="3.9"/>
		</g>
		<g>
			<radialGradient id="SVGID_25_" cx="431.4308" cy="1314.901" r="20.0625" gradientUnits="userSpaceOnUse">
				<stop  offset="0" style="stop-color:#FFFFFF"/>
				<stop  offset="0.1375" style="stop-color:#FFFFFF;stop-opacity:0.8625"/>
				<stop  offset="1" style="stop-color:#FFFFFF;stop-opacity:0"/>
			</radialGradient>
			<circle opacity="0.5" fill="url(#SVGID_25_)" cx="431.4" cy="1314.9" r="20.1"/>
			<circle fill="#FFFFFF" cx="431.4" cy="1314.9" r="3.6"/>
		</g>
	</g>
	<g id="meteor_2_">
		<g id="meteor_1_">
			
				<linearGradient id="SVGID_26_" gradientUnits="userSpaceOnUse" x1="-9.6619" y1="-197.9179" x2="469.4981" y2="-197.9179" gradientTransform="matrix(1 0 0 1 72.0563 573.2676)">
				<stop  offset="0" style="stop-color:#FFFFFF"/>
				<stop  offset="1" style="stop-color:#FFFFFF;stop-opacity:0"/>
			</linearGradient>
			<path opacity="0.2" fill="url(#SVGID_26_)" d="M541.5,135.8c-4.1-4.1-418.8,404.1-448.2,433.5s-33.7,40.3-29.6,44.4
				c4.1,4.1,15-0.3,44.4-29.6C137.4,554.6,545.6,139.9,541.5,135.8z"/>
			
				<linearGradient id="SVGID_27_" gradientUnits="userSpaceOnUse" x1="17.6264" y1="286.4277" x2="227.9103" y2="286.4277" gradientTransform="matrix(0.7071 -0.7071 0.7071 0.7071 -150.4064 422.6606)">
				<stop  offset="0" style="stop-color:#FFFFFF"/>
				<stop  offset="1" style="stop-color:#FFFFFF;stop-opacity:0"/>
			</linearGradient>
			<path opacity="0.7" fill="url(#SVGID_27_)" d="M213.3,464c-2.6-2.6-123.6,114.1-135.7,126.2c-12.1,12.1-15.6,19.8-13,22.5
				c2.6,2.6,10.3-0.8,22.5-13C99.2,587.7,215.9,466.7,213.3,464z"/>
			<path opacity="0.5" fill="#FFFFFF" d="M140.4,536.9c-1.3-1.3-61.9,57.1-68,63.2c-6.1,6.1-7.8,9.9-6.5,11.3s5.2-0.4,11.3-6.5
				C83.3,598.8,141.7,538.2,140.4,536.9z"/>
		</g>
		<g id="meteor">
			
				<linearGradient id="SVGID_28_" gradientUnits="userSpaceOnUse" x1="295.5669" y1="-311.3223" x2="774.7269" y2="-311.3223" gradientTransform="matrix(1 0 0 1 72.0563 573.2676)">
				<stop  offset="0" style="stop-color:#FFFFFF"/>
				<stop  offset="1" style="stop-color:#FFFFFF;stop-opacity:0"/>
			</linearGradient>
			<path opacity="0.2" fill="url(#SVGID_28_)" d="M846.8,22.4c-4.1-4.1-418.8,404.1-448.2,433.5c-29.4,29.4-33.7,40.3-29.6,44.4
				c4.1,4.1,15-0.2,44.4-29.6C442.7,441.2,850.8,26.5,846.8,22.4z"/>
			
				<linearGradient id="SVGID_29_" gradientUnits="userSpaceOnUse" x1="313.6449" y1="422.068" x2="523.9287" y2="422.068" gradientTransform="matrix(0.7071 -0.7071 0.7071 0.7071 -150.4064 422.6606)">
				<stop  offset="0" style="stop-color:#FFFFFF"/>
				<stop  offset="1" style="stop-color:#FFFFFF;stop-opacity:0"/>
			</linearGradient>
			<path opacity="0.7" fill="url(#SVGID_29_)" d="M518.5,350.6c-2.6-2.6-123.6,114.1-135.7,126.2s-15.6,19.8-13,22.5
				c2.6,2.6,10.3-0.8,22.5-13S521.1,353.3,518.5,350.6z"/>
			<path opacity="0.5" fill="#FFFFFF" d="M445.6,423.5c-1.3-1.3-61.9,57.1-68,63.2s-7.8,9.9-6.5,11.3c1.3,1.3,5.2-0.4,11.3-6.5
				S447,424.8,445.6,423.5z"/>
		</g>
	</g>
	<radialGradient id="earth_2_" cx="867.5959" cy="709.7549" r="31.811" gradientUnits="userSpaceOnUse">
		<stop  offset="0" style="stop-color:#FFFFC7"/>
		<stop  offset="1" style="stop-color:#00B7FF"/>
	</radialGradient>
	<circle id="earth_1_" fill="url(#earth_2_)" cx="878.5" cy="721.1" r="22.9"/>
	<radialGradient id="moon_1_" cx="265.9219" cy="243.1918" r="52.5454" gradientUnits="userSpaceOnUse">
		<stop  offset="0" style="stop-color:#FFEDBC"/>
		<stop  offset="1" style="stop-color:#ED4264"/>
	</radialGradient>
	<circle id="moon" fill="url(#moon_1_)" cx="284" cy="261.9" r="37.8"/>
	<g id="planet">
		<radialGradient id="SVGID_30_" cx="948.0317" cy="1174.9154" r="85.1019" gradientUnits="userSpaceOnUse">
			<stop  offset="0" style="stop-color:#CAC9FF"/>
			<stop  offset="1" style="stop-color:#3A3897"/>
		</radialGradient>
		<circle fill="url(#SVGID_30_)" cx="974.6" cy="1198.8" r="64"/>
		<g opacity="0.2">
			<linearGradient id="SVGID_31_" gradientUnits="userSpaceOnUse" x1="948.8007" y1="1134.0629" x2="1009.1678" y2="1194.4302">
				<stop  offset="0" style="stop-color:#000000;stop-opacity:0"/>
				<stop  offset="1" style="stop-color:#000000"/>
			</linearGradient>
			<path fill="url(#SVGID_31_)" d="M1032.3,1171.3c-2.6-5.5-6-10.6-10-15.1c-30.6,12.8-52.1-5-63.5-19.4
				c-14.3,3.6-26.6,12-35.3,23.4C966.9,1193.7,1012.1,1180.3,1032.3,1171.3z"/>
			<linearGradient id="SVGID_32_" gradientUnits="userSpaceOnUse" x1="917.5194" y1="1211.9271" x2="954.597" y2="1249.0048">
				<stop  offset="0" style="stop-color:#000000;stop-opacity:0"/>
				<stop  offset="1" style="stop-color:#000000"/>
			</linearGradient>
			<path fill="url(#SVGID_32_)" d="M963.8,1238.9c0-6.6-23.6-2.1-50.7-22.5c3.4,12,10.3,22.5,19.4,30.5
				C949.2,1246,963.7,1243.4,963.8,1238.9z"/>
			<linearGradient id="SVGID_33_" gradientUnits="userSpaceOnUse" x1="924.7015" y1="1165.0187" x2="1011.7491" y2="1252.0663">
				<stop  offset="0" style="stop-color:#000000;stop-opacity:0"/>
				<stop  offset="1" style="stop-color:#000000"/>
			</linearGradient>
			<path fill="url(#SVGID_33_)" d="M915.5,1174.3c-2.1,5-3.5,10.3-4.3,15.9c36.4,44.3,86.4,34.9,89.9,46c3,9.5-16.4,17.7-53.3,20.8
				c8.1,3.8,17.2,5.9,26.8,5.9c31.8,0,58.1-23.2,63.1-53.5C968.6,1220.3,931.5,1192.3,915.5,1174.3z"/>
		</g>
	</g>
	<g id="planet_1_">
		<g>
			<radialGradient id="SVGID_34_" cx="343.5352" cy="906.5627" r="254.4095" gradientUnits="userSpaceOnUse">
				<stop  offset="0" style="stop-color:#FFFFC7"/>
				<stop  offset="1" style="stop-color:#00B7FF"/>
			</radialGradient>
			<circle fill="url(#SVGID_34_)" cx="416.3" cy="978.7" r="178.3"/>
			<g opacity="0.2">
				
					<linearGradient id="SVGID_35_" gradientUnits="userSpaceOnUse" x1="499.8704" y1="949.3744" x2="331.6699" y2="781.1739" gradientTransform="matrix(-1 0 0 -1 819.7181 1940.2159)">
					<stop  offset="0" style="stop-color:#000000;stop-opacity:0"/>
					<stop  offset="1" style="stop-color:#000000"/>
				</linearGradient>
				<path fill="url(#SVGID_35_)" d="M255.3,1055.4c7.3,15.4,16.8,29.5,28,42c85.1-35.7,145,14.1,176.9,54.1
					c39.8-10.1,74.2-33.5,98.2-65.3C437.6,993,311.6,1030.3,255.3,1055.4z"/>
				
					<linearGradient id="SVGID_36_" gradientUnits="userSpaceOnUse" x1="347.8204" y1="1101.4352" x2="244.5113" y2="998.126" gradientTransform="matrix(-1 0 0 -1 819.7181 1940.2159)">
					<stop  offset="0" style="stop-color:#000000;stop-opacity:0"/>
					<stop  offset="1" style="stop-color:#000000"/>
				</linearGradient>
				<path fill="url(#SVGID_36_)" d="M446.4,867c0,18.3,65.7,6,141.3,62.6c-9.6-33.4-28.6-62.8-54-85.1
					C486.9,847.2,446.4,854.3,446.4,867z"/>
				
					<linearGradient id="SVGID_37_" gradientUnits="userSpaceOnUse" x1="507.0625" y1="1109.9651" x2="264.5229" y2="867.4256" gradientTransform="matrix(-1 0 0 -1 819.7181 1940.2159)">
					<stop  offset="0" style="stop-color:#000000;stop-opacity:0"/>
					<stop  offset="1" style="stop-color:#000000"/>
				</linearGradient>
				<path fill="url(#SVGID_37_)" d="M581,1047c5.8-13.9,9.8-28.7,11.9-44.2C491.3,879.4,352,905.5,342.3,874.6
					c-8.3-26.4,45.6-49.3,148.5-57.8c-22.7-10.5-47.9-16.3-74.6-16.3c-88.5,0-162,64.5-175.9,149.1C433,918.7,536.2,996.9,581,1047z
					"/>
			</g>
		</g>
		<g>
			<defs>
				<path id="SVGID_38_" d="M550.2,844.8C377,671.5,176.5,591,102.5,665s6.5,274.5,179.8,447.7S656,1366.5,730,1292.5
					C804,1218.5,723.5,1018,550.2,844.8z M542.3,1104.8L290.2,852.7c69.6-69.6,182.5-69.6,252.1,0S611.9,1035.2,542.3,1104.8z"/>
			</defs>
			<clipPath id="SVGID_39_">
				<use xlink:href="#SVGID_38_"  overflow="visible"/>
			</clipPath>
			
				<linearGradient id="SVGID_40_" gradientUnits="userSpaceOnUse" x1="285.482" y1="1097.7362" x2="1107.4464" y2="1097.7362" gradientTransform="matrix(0.7071 0.7071 -0.7071 0.7071 700 -289.9495)">
				<stop  offset="0" style="stop-color:#FFFFFF;stop-opacity:0"/>
				<stop  offset="1" style="stop-color:#FFFFFF"/>
			</linearGradient>
			<path clip-path="url(#SVGID_39_)" fill="url(#SVGID_40_)" d="M470.4,924.6C309.9,764.1,155.5,658.2,125.6,688.1
				c-29.9,29.9,76,184.2,236.5,344.7s314.8,266.4,344.7,236.5C736.8,1239.5,630.9,1085.1,470.4,924.6z M379.4,1015.6
				c-98.1-98.1-161.1-194.1-140.8-214.4C259,780.8,355,843.8,453.1,941.9s161.1,194.1,140.8,214.4
				C573.5,1176.7,477.5,1113.7,379.4,1015.6z"/>
		</g>
	</g>
	<g id="planet_2_">
		<radialGradient id="SVGID_41_" cx="947.8361" cy="257.9768" r="368.8376" gradientUnits="userSpaceOnUse">
			<stop  offset="0" style="stop-color:#FFEDBC"/>
			<stop  offset="1" style="stop-color:#ED4264"/>
		</radialGradient>
		<circle fill="url(#SVGID_41_)" cx="1050.8" cy="350.6" r="248.4"/>
		<g opacity="0.2">
			<linearGradient id="SVGID_42_" gradientUnits="userSpaceOnUse" x1="950.8212" y1="99.3873" x2="1185.1666" y2="333.7328">
				<stop  offset="0" style="stop-color:#000000;stop-opacity:0"/>
				<stop  offset="1" style="stop-color:#000000"/>
			</linearGradient>
			<path fill="url(#SVGID_42_)" d="M1275.1,243.8c-10.2-21.4-23.4-41.1-39-58.6c-118.6,49.8-202.1-19.6-246.5-75.4
				c-55.4,14-103.4,46.7-136.9,90.9C1021.1,330.8,1196.7,278.7,1275.1,243.8z"/>
			<linearGradient id="SVGID_43_" gradientUnits="userSpaceOnUse" x1="829.3873" y1="401.6562" x2="973.3228" y2="545.5917">
				<stop  offset="0" style="stop-color:#000000;stop-opacity:0"/>
				<stop  offset="1" style="stop-color:#000000"/>
			</linearGradient>
			<path fill="url(#SVGID_43_)" d="M1008.9,506.3c0.1-25.4-91.5-8.3-196.8-87.2c13.3,46.5,39.9,87.5,75.3,118.5
				C952.4,533.9,1008.8,524,1008.9,506.3z"/>
			<linearGradient id="SVGID_44_" gradientUnits="userSpaceOnUse" x1="857.2686" y1="219.5576" x2="1195.187" y2="557.4761">
				<stop  offset="0" style="stop-color:#000000;stop-opacity:0"/>
				<stop  offset="1" style="stop-color:#000000"/>
			</linearGradient>
			<path fill="url(#SVGID_44_)" d="M821.4,255.5c-8.1,19.4-13.7,40-16.6,61.6c141.5,171.9,335.6,135.6,349.2,178.6
				c11.6,36.8-63.5,68.7-207,80.6c31.6,14.6,66.8,22.7,103.9,22.7c123.3,0,225.7-89.9,245-207.8
				C1027.5,434.3,883.8,325.3,821.4,255.5z"/>
		</g>
	</g>
</g>
</svg>
