<!-- Svg Vector Icons : http://www.onlinewebfonts.com/icon -->
<!DOCTYPE svg PUBLIC "-//W3C//DTD SVG 1.1//EN" "http://www.w3.org/Graphics/SVG/1.1/DTD/svg11.dtd">
<svg width="46" height="142" xmlns="http://www.w3.org/2000/svg" class="w-auto h-auto"><g fill="none" fill-rule="evenodd"><g stroke="#FF9972" stroke-linecap="round" stroke-linejoin="round" stroke-width="2"><path d="M33.699 8.24c-.66 2.484-3.137 3.943-5.532 3.258-2.396-.683-3.803-3.251-3.144-5.736.66-2.484 3.137-3.943 5.533-3.258 2.395.683 3.802 3.251 3.143 5.736Z"></path><path d="M34.652 7.323c1.42.558 2.273 1.028 2.205 1.271-.128.468-3.588-.079-7.729-1.218-4.14-1.14-7.392-2.442-7.263-2.91.073-.264 1.208-.204 2.93.104"></path></g><path d="M45 91a4 4 0 1 1-8 0 4 4 0 0 1 8 0Z" stroke="#00F" stroke-linecap="round" stroke-linejoin="round" stroke-width="2"></path><circle cx="2" cy="2" r="2" transform="translate(15 86)" fill="#A2A2FF"></circle><circle cx="2" cy="2" r="2" transform="translate(36 72)" fill="#A2A2FF"></circle><circle cx="2" cy="2" r="2" transform="translate(0 28)" fill="#A2A2FF"></circle><circle cx="2" cy="2" r="2" transform="translate(2 138)" fill="#A2A2FF"></circle></g></svg>